HIERARCHY
ROOT root
{
	OFFSET	0	13.1	24.9
	CHANNELS 6  Xposition Yposition Zposition Xrotation Yrotation Zrotation
	JOINT spine_1
	{
		OFFSET	0	9.99999	0
		CHANNELS 3  Xrotation Yrotation Zrotation
		JOINT spine_2
		{
			OFFSET	0	112	-10
			CHANNELS 3  Xrotation Yrotation Zrotation
			JOINT spine_3
			{
				OFFSET	0	206.5	19.3
				CHANNELS 3  Xrotation Yrotation Zrotation
				JOINT spine_4
				{
					OFFSET	0	110.4	14.6
					CHANNELS 3  Xrotation Yrotation Zrotation
					JOINT neck_1
					{
						OFFSET	0	71.8	-50.3
						CHANNELS 3  Xrotation Yrotation Zrotation
						JOINT neck_2
						{
							OFFSET	0	86.2	-25.8
							CHANNELS 3  Xrotation Yrotation Zrotation
							JOINT head_ee
							{
								OFFSET	0	179.8	-8.7
								CHANNELS 3  Xrotation Yrotation Zrotation
								End Site
								{
									OFFSET	1	0	0
								}
							}
						}
					}
					JOINT left_clavicle
					{
						OFFSET	-43.2	22.4	-70.8
						CHANNELS 3  Xrotation Yrotation Zrotation
						JOINT left_shoulder
						{
							OFFSET	-93.9	-5.79999	48.7
							CHANNELS 3  Xrotation Yrotation Zrotation
							JOINT left_elbow
							{
								OFFSET	-291.4	-30.8	15.2
								CHANNELS 3  Xrotation Yrotation Zrotation
								JOINT left_lowarm_twist
								{
									OFFSET	-110.7	-3.89999	13.6
									CHANNELS 3  Xrotation Yrotation Zrotation
									JOINT left_hand
									{
										OFFSET	-110.7	-3.89999	13.6
										CHANNELS 3  Xrotation Yrotation Zrotation
										JOINT left_ee
										{
											OFFSET	-80.8	-5.10001	12.1
											CHANNELS 3  Xrotation Yrotation Zrotation
											End Site
											{
												OFFSET	1	0	0
											}
										}
									}
								}
							}
						}
					}
					JOINT right_clavicle
					{
						OFFSET	43.2	22.4	-70.8
						CHANNELS 3  Xrotation Yrotation Zrotation
						JOINT right_shoulder
						{
							OFFSET	93.9	-5.79999	48.7
							CHANNELS 3  Xrotation Yrotation Zrotation
							JOINT right_elbow
							{
								OFFSET	291.4	-30.8	15.2
								CHANNELS 3  Xrotation Yrotation Zrotation
								JOINT right_lowarm_twist
								{
									OFFSET	110.7	-3.89999	13.6
									CHANNELS 3  Xrotation Yrotation Zrotation
									JOINT right_hand
									{
										OFFSET	110.7	-3.89999	13.6
										CHANNELS 3  Xrotation Yrotation Zrotation
										JOINT right_ee
										{
											OFFSET	80.8	-5.10001	12.1
											CHANNELS 3  Xrotation Yrotation Zrotation
											End Site
											{
												OFFSET	1	0	0
											}
										}
									}
								}
							}
						}
					}
				}
			}
		}
	}
	JOINT left_hip
	{
		OFFSET	-82.8	-127.5	0.300001
		CHANNELS 3  Xrotation Yrotation Zrotation
		JOINT left_knee
		{
			OFFSET	-28.2	-396.7	2.2
			CHANNELS 3  Xrotation Yrotation Zrotation
			JOINT left_ankle
			{
				OFFSET	-11.7	-411.3	35.4
				CHANNELS 3  Xrotation Yrotation Zrotation
				JOINT left_toes
				{
					OFFSET	0	-60	-88.6
					CHANNELS 3  Xrotation Yrotation Zrotation
					JOINT left_foot_ee
					{
						OFFSET	-22.5	-16.5	-42.2
						CHANNELS 3  Xrotation Yrotation Zrotation
						End Site
						{
							OFFSET	1	0	0
						}
					}
				}
			}
		}
	}
	JOINT right_hip
	{
		OFFSET	82.8	-127.5	0.300001
		CHANNELS 3  Xrotation Yrotation Zrotation
		JOINT right_knee
		{
			OFFSET	28.2	-396.7	2.2
			CHANNELS 3  Xrotation Yrotation Zrotation
			JOINT right_ankle
			{
				OFFSET	11.7	-411.3	35.4
				CHANNELS 3  Xrotation Yrotation Zrotation
				JOINT right_toes
				{
					OFFSET	0	-60	-88.6
					CHANNELS 3  Xrotation Yrotation Zrotation
					JOINT right_foot_ee
					{
						OFFSET	22.5	-16.5	-42.2
						CHANNELS 3  Xrotation Yrotation Zrotation
						End Site
						{
							OFFSET	1	0	0
						}
					}
				}
			}
		}
	}
}
MOTION
Frames: 16
Frame Time: 0.02
1372.05 701.618 -1475.22 4.68347330723 14.6694994913 -1.20464822489 -3.13752 0.448958 0.822507 -3.13723 0.395712 0.849406 -3.13067 0.158173 0.923608 -3.13173 0.302049 0.887041 -9.16697 7.06733 -0.538925 -9.20699 13.6308 1.14706 -0.0 0.0 -0.0 8.95843 -17.1434 17.276 15.4406 -0.537482 59.5195 1.93793 -43.826 0.779617 15.7812 0.283634 -1.9896 5.70969 15.4598 47.6043 -0.0 0.0 -0.0 13.3707 26.82 -26.4349 -20.4081 -5.38132 -65.6166 0.511715 14.2244 -0.0638486 6.78785 -0.189229 0.845908 0.57956 13.3515 1.77515 0.0 0.0 0.0 -17.9346 -23.5413 14.8007 0.526734 -0.0220481 -0.0778235 39.4411 22.7094 -5.0453 2.61462 -0.0 -0.0 -0.0 0.0 -0.0 26.6393 2.47244 -6.61591 -3.71878 -0.135151 -0.554615 9.39819 -18.814 1.36313 -2.00231 0.0 0.0 0.0 0.0 0.0 
1325.69908804 704.381 -1550.79445196 2.6131635518 23.607569199 -1.34803411249 -2.97173 0.316845 0.394783 -2.97169 0.291082 0.414144 -2.96942 0.173135 0.475676 -2.96965 0.246085 0.442364 -7.44024 7.8634 -0.0362235 -7.44873 14.6683 1.61561 -0.0 0.0 -0.0 10.4577 -12.9653 20.7831 8.7628 3.53153 57.6487 1.91889 -43.5435 0.766463 14.5821 0.281438 -1.83646 5.63061 13.7649 46.4018 -0.0 0.0 -0.0 13.1718 26.2675 -26.0426 -20.1441 -5.89671 -64.8538 0.468701 13.0716 -0.0536986 7.79993 -0.208806 0.973708 0.20178 11.0962 3.35588 0.0 0.0 0.0 -16.7743 -23.0337 15.2613 -3.07028 0.114182 0.4573 39.4577 19.6652 -4.97046 2.07324 -0.0 -0.0 -0.0 0.0 -0.0 25.0683 3.30972 -7.75846 -9.37053 -0.270934 -1.41096 6.94951 -17.4725 1.01133 -2.33427 0.0 0.0 0.0 0.0 0.0 
1326.20382692 704.381 -1551.10170559 2.60563388759 23.2260817096 -1.32908772819 -2.97173 0.316845 0.394783 -2.97169 0.291082 0.414144 -2.96942 0.173135 0.475676 -2.96965 0.246085 0.442364 -7.44024 7.8634 -0.0362235 -7.44873 14.6683 1.61561 -0.0 0.0 -0.0 10.4577 -12.9653 20.7831 8.7628 3.53153 57.6487 1.91889 -43.5435 0.766463 14.5821 0.281438 -1.83646 5.63061 13.7649 46.4018 -0.0 0.0 -0.0 13.1718 26.2675 -26.0426 -20.1441 -5.89671 -64.8538 0.468701 13.0716 -0.0536986 7.79993 -0.208806 0.973708 0.20178 11.0962 3.35588 0.0 0.0 0.0 -16.7743 -23.0337 15.2613 -3.07028 0.114182 0.4573 39.4577 19.6652 -4.97046 2.07324 -0.0 -0.0 -0.0 0.0 -0.0 25.0683 3.30972 -7.75846 -9.37053 -0.270934 -1.41096 6.94951 -17.4725 1.01133 -2.33427 0.0 0.0 0.0 0.0 0.0 
1326.59783654 704.381 -1551.33836615 2.59988656718 22.9293483075 -1.31442547244 -2.97173 0.316845 0.394783 -2.97169 0.291082 0.414144 -2.96942 0.173135 0.475676 -2.96965 0.246085 0.442364 -7.44024 7.8634 -0.0362235 -7.44873 14.6683 1.61561 -0.0 0.0 -0.0 10.4577 -12.9653 20.7831 8.7628 3.53153 57.6487 1.91889 -43.5435 0.766463 14.5821 0.281438 -1.83646 5.63061 13.7649 46.4018 -0.0 0.0 -0.0 13.1718 26.2675 -26.0426 -20.1441 -5.89671 -64.8538 0.468701 13.0716 -0.0536986 7.79993 -0.208806 0.973708 0.20178 11.0962 3.35588 0.0 0.0 0.0 -16.7743 -23.0337 15.2613 -3.07028 0.114182 0.4573 39.4577 19.6652 -4.97046 2.07324 -0.0 -0.0 -0.0 0.0 -0.0 25.0683 3.30972 -7.75846 -9.37053 -0.270934 -1.41096 6.94951 -17.4725 1.01133 -2.33427 0.0 0.0 0.0 0.0 0.0 
1293.01634003 711.638 -1590.24204291 4.06202233037 26.3061964163 -1.61748092936 -3.10536 0.484283 -0.0285073 -3.10549 0.485115 0.00236734 -3.10563 0.467438 0.129788 -3.10532 0.482069 0.0543341 -7.83637 7.6203 -0.544838 -7.85149 14.6008 1.10702 -0.0 0.0 -0.0 10.3342 -12.3733 20.5246 3.46042 4.22232 59.3115 1.65072 -39.2704 0.588974 13.0849 0.274199 -1.64537 5.49725 12.932 44.9111 -0.0 0.0 -0.0 13.2023 26.4652 -26.0891 -18.7882 -7.31899 -62.4255 0.449518 12.5539 -0.0494444 7.90057 -0.210629 0.986435 0.0385313 9.36823 3.72143 0.0 0.0 0.0 -15.6455 -21.8028 15.7781 -9.0747 0.265928 1.36584 38.3921 18.3129 -4.8418 1.53702 -0.0 -0.0 -0.0 0.0 -0.0 23.387 3.80277 -7.25218 -14.4301 -0.320396 -2.18546 2.85253 -14.3173 0.416749 -2.23428 0.0 0.0 0.0 0.0 0.0 
1294.18951159 711.638 -1591.03940299 4.04193753159 25.7252852624 -1.57169042988 -3.10536 0.484283 -0.0285073 -3.10549 0.485115 0.00236734 -3.10563 0.467438 0.129788 -3.10532 0.482069 0.0543341 -7.83637 7.6203 -0.544838 -7.85149 14.6008 1.10702 -0.0 0.0 -0.0 10.3342 -12.3733 20.5246 3.46042 4.22232 59.3115 1.65072 -39.2704 0.588974 13.0849 0.274199 -1.64537 5.49725 12.932 44.9111 -0.0 0.0 -0.0 13.2023 26.4652 -26.0891 -18.7882 -7.31899 -62.4255 0.449518 12.5539 -0.0494444 7.90057 -0.210629 0.986435 0.0385313 9.36823 3.72143 0.0 0.0 0.0 -15.6455 -21.8028 15.7781 -9.0747 0.265928 1.36584 38.3921 18.3129 -4.8418 1.53702 -0.0 -0.0 -0.0 0.0 -0.0 23.387 3.80277 -7.25218 -14.4301 -0.320396 -2.18546 2.85253 -14.3173 0.416749 -2.23428 0.0 0.0 0.0 0.0 0.0 
1231.06041001 711.836 -1631.38123582 5.55518365549 30.180825093 -4.97005752788 -2.98207 0.295354 0.262197 -2.98208 0.278071 0.28046 -2.98064 0.195333 0.343258 -2.98072 0.247092 0.308101 -8.78299 6.84855 -0.479889 -8.81309 13.1615 1.10883 -0.0 0.0 -0.0 11.4262 -10.8174 22.9833 -1.33107 7.84514 60.5452 1.08276 -28.2068 0.272045 11.2019 0.25801 -1.40542 4.30486 7.01699 32.8824 -0.0 0.0 -0.0 13.4866 26.5854 -26.7332 -11.4757 -6.71804 -58.249 0.217534 6.1506 -0.0116872 7.23344 -0.198126 0.902133 -0.929313 1.9956 7.09549 0.0 0.0 0.0 -12.7284 -13.3037 16.6808 -26.7095 0.155969 4.05892 41.8068 18.1177 -5.14916 2.58255 -0.0 -0.0 -0.0 0.0 -0.0 19.4355 6.15812 -3.66814 -19.2985 -0.303325 -2.932 -1.80264 3.0188 -0.270319 -4.38679 0.0 0.0 0.0 0.0 0.0 
1224.37949585 717.399 -1645.95705653 6.31138317056 31.5723037475 -5.70738865637 -3.05595 0.346028 0.320924 -3.05595 0.324906 0.342292 -3.0539 0.223898 0.415447 -3.05403 0.2867 0.374874 -9.04771 6.85645 1.27144 -9.07567 11.9817 2.85752 -0.0 0.0 -0.0 10.9287 -11.0194 21.8701 -2.40487 9.20082 60.9387 0.972218 -25.7154 0.221917 11.8486 0.264459 -1.48777 3.6263 4.45034 26.7695 -0.0 0.0 -0.0 13.3031 26.2941 -26.3434 -7.21169 -6.29751 -57.2414 0.20279 5.73661 -0.0101604 7.42454 -0.201808 0.926267 -1.52098 -3.52155 8.60085 0.0 0.0 0.0 -9.86665 -10.2311 14.8373 -34.1429 -0.136779 5.16129 41.366 19.6921 -5.14549 3.47079 -0.0 -0.0 -0.0 0.0 -0.0 18.3054 6.51043 -3.5497 -20.9892 -0.282569 -3.19057 2.07595 8.30241 0.315421 -5.33586 0.0 0.0 0.0 0.0 0.0 
1216.81484111 718.469 -1658.6577713 7.02062167967 32.3750832247 -6.52432155436 -3.16865 0.383289 0.40488 -3.16862 0.356749 0.428449 -3.16578 0.231073 0.507388 -3.166 0.308305 0.464528 -9.28196 6.87187 2.53365 -9.29692 11.1615 4.11762 -0.0 0.0 -0.0 10.5793 -11.1365 21.0928 -3.23754 10.1734 61.3183 0.895283 -23.9169 0.189623 12.3067 0.268465 -1.54615 3.12163 2.70205 22.4195 -0.0 0.0 -0.0 13.1869 26.01 -26.1084 -4.27814 -6.0136 -56.6218 0.194535 5.50456 -0.00935193 7.57522 -0.204655 0.945304 -1.94383 -7.38612 9.5957 0.0 0.0 0.0 -7.66663 -7.97913 13.6476 -39.3417 -0.42542 5.90592 41.0527 20.818 -5.14494 4.09494 -0.0 -0.0 -0.0 0.0 -0.0 17.3821 6.65354 -3.71538 -22.1648 -0.263643 -3.36997 4.76305 12.0183 0.733501 -5.98901 0.0 0.0 0.0 0.0 0.0 
1207.99739816 717.671 -1673.56085351 6.89528616237 32.6457134094 -6.16841712029 -3.1614 0.393257 0.395822 -3.16138 0.367273 0.420043 -3.15852 0.243506 0.502026 -3.15873 0.319735 0.457269 -9.43037 6.92932 3.3101 -9.43289 10.7518 4.90194 -0.0 0.0 -0.0 10.3478 -11.2896 20.5781 -4.02019 11.0052 62.3425 0.842529 -22.6537 0.168768 12.6868 0.271434 -1.5946 2.71981 1.48896 19.0861 -0.0 0.0 -0.0 13.1639 25.8512 -26.0739 -2.0957 -5.74675 -56.2158 0.20937 5.92144 -0.0108287 7.69786 -0.206934 0.960805 -2.23061 -10.0381 10.1824 0.0 0.0 0.0 -5.4686 -5.06554 13.2933 -42.9593 -0.665689 6.40751 40.6784 21.7146 -5.13418 4.5264 -0.0 -0.0 -0.0 0.0 -0.0 16.479 6.76278 -3.71657 -23.0288 -0.247387 -3.50156 6.62461 14.1685 1.02869 -6.28449 0.0 0.0 0.0 0.0 0.0 
1176.51612707 729.735 -1696.16408314 7.6794310741 35.51067189 -7.06087466923 -3.13617 0.226763 0.329991 -3.13613 0.205305 0.343752 -3.13478 0.107544 0.38568 -3.13495 0.167105 0.363856 -9.84305 7.20847 3.10805 -9.85853 11.4581 4.81036 -0.0 0.0 -0.0 9.86621 -9.25675 19.5499 -7.4802 12.34 63.426 0.752 -20.4313 0.13552 13.4939 0.276672 -1.69755 2.1475 -1.23474 14.0077 -0.0 0.0 -0.0 13.1107 26.0358 -25.9287 0.426501 -5.42053 -54.5367 0.34598 9.72554 -0.0294346 8.14217 -0.214915 1.017 -2.14592 -12.9798 8.1799 0.0 0.0 0.0 -2.14904 -1.6572 11.7411 -45.6197 -0.86243 6.76637 38.2646 25.1034 -5.0013 4.64606 -0.0 -0.0 -0.0 0.0 -0.0 13.5701 7.06594 -2.86008 -24.0519 -0.225575 -3.65704 10.288 14.4723 1.57924 -5.75164 0.0 0.0 0.0 0.0 0.0 
1187.31882344 729.735 -1705.27254997 7.43456799979 32.790211824 -6.62480891595 -3.13617 0.226763 0.329991 -3.13613 0.205305 0.343752 -3.13478 0.107544 0.38568 -3.13495 0.167105 0.363856 -9.84305 7.20847 3.10805 -9.85853 11.4581 4.81036 -0.0 0.0 -0.0 9.86621 -9.25675 19.5499 -7.4802 12.34 63.426 0.752 -20.4313 0.13552 13.4939 0.276672 -1.69755 2.1475 -1.23474 14.0077 -0.0 0.0 -0.0 13.1107 26.0358 -25.9287 0.426501 -5.42053 -54.5367 0.34598 9.72554 -0.0294346 8.14217 -0.214915 1.017 -2.14592 -12.9798 8.1799 0.0 0.0 0.0 -2.14904 -1.6572 11.7411 -45.6197 -0.86243 6.76637 38.2646 25.1034 -5.0013 4.64606 -0.0 -0.0 -0.0 0.0 -0.0 13.5701 7.06594 -2.86008 -24.0519 -0.225575 -3.65704 10.288 14.4723 1.57924 -5.75164 0.0 0.0 0.0 0.0 0.0 
1169.17262195 733.23 -1735.29452528 6.03898779903 34.0580968458 -5.55210725885 -2.59273 0.362905 0.359025 -2.59273 0.339324 0.38139 -2.59034 0.231262 0.4551 -2.5905 0.300234 0.412866 -10.1875 6.95016 2.78185 -10.2107 11.2256 4.46039 -0.0 0.0 -0.0 9.41184 -6.21171 18.5796 -11.2505 13.2308 63.8429 0.586184 -16.1923 0.0833868 13.9233 0.278868 -1.75235 1.76102 -2.97277 10.6407 -0.0 0.0 -0.0 13.2271 27.1625 -26.0593 3.39188 -4.56906 -53.2134 0.557741 15.445 -0.0756333 9.755 -0.240217 1.22146 -1.79814 -13.7329 5.61692 0.0 0.0 0.0 4.41359 1.82872 7.3031 -46.9285 -0.96531 6.93953 36.4458 26.2333 -4.85141 4.71896 -0.0 -0.0 -0.0 0.0 -0.0 11.4994 6.47505 -3.34838 -21.475 -0.275195 -3.26475 12.5259 12.8199 1.88381 -5.34394 0.0 0.0 0.0 0.0 0.0 
1182.36943343 733.23 -1745.07046209 5.84969999858 31.2203246795 -5.20125841174 -2.59273 0.362905 0.359025 -2.59273 0.339324 0.38139 -2.59034 0.231262 0.4551 -2.5905 0.300234 0.412866 -10.1875 6.95016 2.78185 -10.2107 11.2256 4.46039 -0.0 0.0 -0.0 9.41184 -6.21171 18.5796 -11.2505 13.2308 63.8429 0.586184 -16.1923 0.0833868 13.9233 0.278868 -1.75235 1.76102 -2.97277 10.6407 -0.0 0.0 -0.0 13.2271 27.1625 -26.0593 3.39188 -4.56906 -53.2134 0.557741 15.445 -0.0756333 9.755 -0.240217 1.22146 -1.79814 -13.7329 5.61692 0.0 0.0 0.0 4.41359 1.82872 7.3031 -46.9285 -0.96531 6.93953 36.4458 26.2333 -4.85141 4.71896 -0.0 -0.0 -0.0 0.0 -0.0 11.4994 6.47505 -3.34838 -21.475 -0.275195 -3.26475 12.5259 12.8199 1.88381 -5.34394 0.0 0.0 0.0 0.0 0.0 
1196.19937121 733.23 -1754.28011105 5.68366581755 28.3483714882 -4.86711434514 -2.59273 0.362905 0.359025 -2.59273 0.339324 0.38139 -2.59034 0.231262 0.4551 -2.5905 0.300234 0.412866 -10.1875 6.95016 2.78185 -10.2107 11.2256 4.46039 -0.0 0.0 -0.0 9.41184 -6.21171 18.5796 -11.2505 13.2308 63.8429 0.586184 -16.1923 0.0833868 13.9233 0.278868 -1.75235 1.76102 -2.97277 10.6407 -0.0 0.0 -0.0 13.2271 27.1625 -26.0593 3.39188 -4.56906 -53.2134 0.557741 15.445 -0.0756333 9.755 -0.240217 1.22146 -1.79814 -13.7329 5.61692 0.0 0.0 0.0 4.41359 1.82872 7.3031 -46.9285 -0.96531 6.93953 36.4458 26.2333 -4.85141 4.71896 -0.0 -0.0 -0.0 0.0 -0.0 11.4994 6.47505 -3.34838 -21.475 -0.275195 -3.26475 12.5259 12.8199 1.88381 -5.34394 0.0 0.0 0.0 0.0 0.0 
1196.24218377 729.132 -1768.95353166 5.32509599514 25.6576193504 -3.56955035057 -2.38894 0.518878 0.244906 -2.38905 0.502242 0.277428 -2.3866 0.41666 0.394473 -2.38651 0.47373 0.323719 -8.47557 6.48356 1.43777 -8.49087 11.1242 2.88026 -0.0 0.0 -0.0 9.50713 -5.6928 18.7796 -11.0222 13.7468 62.943 0.533923 -14.8151 0.0694164 15.7566 0.283621 -1.98646 1.55668 -2.48015 9.44867 -0.0 0.0 -0.0 13.2485 27.4453 -26.0723 2.65616 -4.74798 -52.6765 0.737057 20.058 -0.130349 9.86623 -0.241749 1.23558 -1.45006 -12.8199 3.85434 0.0 0.0 0.0 9.44423 4.07663 4.99358 -50.2756 -1.24625 7.37144 37.3424 26.3919 -4.94943 5.41601 -0.0 -0.0 -0.0 0.0 -0.0 10.4382 6.288 -4.29831 -20.5558 -0.288617 -3.12436 11.9298 13.6672 1.80885 -5.14844 0.0 0.0 0.0 0.0 0.0 
